<?xml version="1.0" encoding="iso-8859-1"?>
<!-- Generator: Adobe Illustrator 19.0.0, SVG Export Plug-In . SVG Version: 6.00 Build 0)  -->
<svg width="40px" height="40px" version="1.1" id="Layer_1" xmlns="http://www.w3.org/2000/svg" xmlns:xlink="http://www.w3.org/1999/xlink" x="0px" y="0px"
	 viewBox="0 0 511.911 511.911" style="enable-background:new 0 0 511.911 511.911;" xml:space="preserve">
<g>
	<g>
		<path d="M506.467,251.604l-37.525-83.947c-3.221-64.171-108.48-93.035-213.035-93.035S46.094,103.486,42.894,167.657
			l-37.333,83.52c-10.496,20.992-5.845,46.827,11.52,63.019l135.787,120.405c1.941,1.749,4.48,2.688,7.083,2.688
			c0.683,0,1.344-0.064,2.027-0.192c3.264-0.619,6.037-2.731,7.531-5.696l39.723-79.445h93.483l39.723,79.445
			c1.472,2.965,4.267,5.077,7.531,5.696c0.661,0.128,1.344,0.192,2.027,0.192c2.581,0,5.099-0.939,7.083-2.688l136-120.576
			C512.121,298.025,516.793,272.19,506.467,251.604z M219.833,330.622l10.667-21.333h50.816l10.667,21.333H219.833z
			 M284.366,287.956H227.47L64.505,165.737c6.08-40.085,86.229-69.781,191.403-69.781c105.195,0,185.323,29.696,191.403,69.781
			L284.366,287.956z"/>
	</g>
</g>
<g>
</g>
<g>
</g>
<g>
</g>
<g>
</g>
<g>
</g>
<g>
</g>
<g>
</g>
<g>
</g>
<g>
</g>
<g>
</g>
<g>
</g>
<g>
</g>
<g>
</g>
<g>
</g>
<g>
</g>
</svg>
