<?xml version="1.0" encoding="iso-8859-1"?>
<!-- Generator: Adobe Illustrator 19.0.0, SVG Export Plug-In . SVG Version: 6.00 Build 0)  -->
<svg width="40px" height="40px" version="1.1" id="Layer_1" xmlns="http://www.w3.org/2000/svg" xmlns:xlink="http://www.w3.org/1999/xlink" x="0px" y="0px"
	 viewBox="0 0 512 512" style="enable-background:new 0 0 512 512;" xml:space="preserve">
<g>
	<path style="fill:#4482C3;" d="M35.31,101.517v-1.05C9.79,123.268,0,194.101,0,278.069c0,102.382,18.838,185.379,52.966,185.379
		H176.94c25.821,0,48.914-16.057,57.918-40.254l12.279-33.015c3.054-8.21,14.671-8.21,17.726,0l12.279,33.015
		c8.995,24.196,32.097,40.254,57.918,40.254h123.975c34.127,0,52.966-82.997,52.966-185.379c0-83.968-9.79-154.801-35.31-177.602
		v1.05H35.31z"/>
	<path style="fill:#214A68;" d="M167.724,251.586H79.448c-9.754,0-17.655-7.901-17.655-17.655v-52.966h123.586v52.966
		C185.379,243.686,177.479,251.586,167.724,251.586"/>
	<path style="fill:#285680;" d="M185.379,180.966H61.793V163.31c0-9.754,7.901-17.655,17.655-17.655h88.276
		c9.754,0,17.655,7.901,17.655,17.655V180.966z"/>
	<path style="fill:#214A68;" d="M432.552,251.586h-88.276c-9.754,0-17.655-7.901-17.655-17.655v-52.966h123.586v52.966
		C450.207,243.686,442.306,251.586,432.552,251.586"/>
	<path style="fill:#285680;" d="M450.207,180.966H326.621V163.31c0-9.754,7.901-17.655,17.655-17.655h88.276
		c9.754,0,17.655,7.901,17.655,17.655V180.966z"/>
	<path style="fill:#214A68;" d="M476.69,101.517H35.31v-35.31c0-9.754,7.901-17.655,17.655-17.655h406.069
		c9.754,0,17.655,7.901,17.655,17.655V101.517z"/>
	<g>
		<path style="fill:#4482C3;" d="M414.897,83.862c4.873,0,8.828-3.946,8.828-8.828V48.552h-17.655v26.483
			C406.069,79.916,410.024,83.862,414.897,83.862"/>
		<path style="fill:#4482C3;" d="M361.931,83.862c4.873,0,8.828-3.946,8.828-8.828V48.552h-17.655v26.483
			C353.103,79.916,357.058,83.862,361.931,83.862"/>
		<path style="fill:#4482C3;" d="M308.966,83.862c4.873,0,8.828-3.946,8.828-8.828V48.552h-17.655v26.483
			C300.138,79.916,304.093,83.862,308.966,83.862"/>
		<path style="fill:#4482C3;" d="M256,83.862c4.873,0,8.828-3.946,8.828-8.828V48.552h-17.655v26.483
			C247.172,79.916,251.127,83.862,256,83.862"/>
		<path style="fill:#4482C3;" d="M203.034,83.862c4.873,0,8.828-3.946,8.828-8.828V48.552h-17.655v26.483
			C194.207,79.916,198.162,83.862,203.034,83.862"/>
		<path style="fill:#4482C3;" d="M150.069,83.862c4.873,0,8.828-3.946,8.828-8.828V48.552h-17.655v26.483
			C141.241,79.916,145.196,83.862,150.069,83.862"/>
		<path style="fill:#4482C3;" d="M97.103,83.862c4.873,0,8.828-3.946,8.828-8.828V48.552H88.276v26.483
			C88.276,79.916,92.231,83.862,97.103,83.862"/>
	</g>
</g>
<g>
</g>
<g>
</g>
<g>
</g>
<g>
</g>
<g>
</g>
<g>
</g>
<g>
</g>
<g>
</g>
<g>
</g>
<g>
</g>
<g>
</g>
<g>
</g>
<g>
</g>
<g>
</g>
<g>
</g>
</svg>
