<?xml version="1.0" encoding="iso-8859-1"?>
<!-- Generator: Adobe Illustrator 19.0.0, SVG Export Plug-In . SVG Version: 6.00 Build 0)  -->
<svg width="40px" height="40px" version="1.1" id="Layer_1" xmlns="http://www.w3.org/2000/svg" xmlns:xlink="http://www.w3.org/1999/xlink" x="0px" y="0px"
	 viewBox="0 0 512 512" style="enable-background:new 0 0 512 512;" xml:space="preserve">
<g transform="translate(1)">
	<path style="fill:#FFE100;" d="M152.916,401.067c5.973-25.6,29.013-174.08,8.533-230.4c-22.187-60.587,0-102.4,8.533-119.467
		c12.8,12.8,46.08,16.213,68.267,16.213V76.8h34.133v-9.387C294.569,66.56,327.849,64,340.649,51.2
		c8.533,17.067,30.72,58.88,8.533,119.467c-20.48,56.32,2.56,204.8,8.533,230.4c6.827,29.013,17.067,85.333,17.067,85.333
		c-23.893,18.773-73.387,26.453-102.4,0c0,0,8.533-128,8.533-162.133s-25.6-136.533-25.6-162.133c0,25.6-25.6,128-25.6,162.133
		s8.533,162.133,8.533,162.133c-29.013,26.453-78.507,18.773-102.4,0C135.849,486.4,146.089,430.08,152.916,401.067"/>
	<g>
		<path style="fill:#FDCC00;" d="M152.062,128c32.427-3.413,58.027-29.013,59.733-61.44c-16.213-2.56-33.28-6.827-41.813-15.36
			C164.009,64,150.356,90.453,152.062,128"/>
		<path style="fill:#FDCC00;" d="M358.569,128c-32.427-3.413-58.027-29.013-59.733-61.44c16.213-2.56,33.28-6.827,41.813-15.36
			C346.622,64,360.276,90.453,358.569,128"/>
		<path style="fill:#FDCC00;" d="M272.382,67.413C294.569,66.56,327.849,64,340.649,51.2c0,0-5.973-13.653-17.067-34.133h-51.2
			V67.413z"/>
		<path style="fill:#FDCC00;" d="M238.249,17.067h-51.2C175.956,37.547,169.982,51.2,169.982,51.2
			c12.8,12.8,46.08,16.213,68.267,16.213V17.067z"/>
	</g>
	<g>
		<path style="fill:#FFA800;" d="M357.716,401.067c-5.973-25.6-29.013-174.08-8.533-230.4c22.187-60.587,0-102.4-8.533-119.467
			c-3.413,3.413-7.68,5.973-12.8,7.68c9.387,20.48,23.893,58.88,4.267,111.787c-20.48,56.32,2.56,204.8,8.533,230.4
			c6.827,29.013,17.067,85.333,17.067,85.333c-11.093,8.533-28.16,15.36-45.227,17.067c23.04,2.56,47.787-5.12,62.293-17.067
			C374.782,486.4,364.542,429.227,357.716,401.067"/>
		<path style="fill:#FFA800;" d="M306.516,17.067c11.093,20.48,17.067,34.133,17.067,34.133c-10.24,10.24-31.573,13.653-51.2,15.36
			v0.853C294.569,66.56,327.849,64,340.649,51.2c0,0-5.973-13.653-17.067-34.133H306.516z"/>
	</g>
	<g>
		<path style="fill:#FFFFFF;" d="M152.916,401.067c5.973-25.6,29.013-174.08,8.533-230.4c-22.187-60.587,0-102.4,8.533-119.467
			c3.413,3.413,7.68,5.973,12.8,7.68c-9.387,20.48-23.04,59.733-4.267,111.787c20.48,56.32-2.56,204.8-8.533,230.4
			c-6.827,29.013-17.067,85.333-17.067,85.333c11.093,8.533,28.16,15.36,45.227,17.067c-23.04,2.56-47.787-5.12-62.293-17.067
			C135.849,486.4,146.089,429.227,152.916,401.067"/>
		<path style="fill:#FFFFFF;" d="M204.116,17.067C193.022,37.547,187.049,51.2,187.049,51.2c10.24,10.24,31.573,13.653,51.2,15.36
			v0.853C216.062,66.56,182.782,64,169.982,51.2c0,0,5.973-13.653,17.067-34.133H204.116z"/>
	</g>
	<polygon style="fill:#E4667F;" points="238.249,76.8 272.382,76.8 272.382,8.533 238.249,8.533 	"/>
	<path d="M255.316,170.667c-10.24,0-26.453-7.68-29.013-9.387c-4.267-1.707-5.973-6.827-3.413-11.093s6.827-5.973,11.093-3.413
		c5.973,3.413,17.067,7.68,22.187,7.68c4.267,0,15.36-4.267,22.187-7.68c4.267-1.707,9.387,0,11.093,3.413
		c1.707,4.267,0,9.387-3.413,11.093C281.769,162.987,265.556,170.667,255.316,170.667z"/>
	<path d="M272.382,85.333h-34.133c-5.12,0-8.533-3.413-8.533-8.533V8.533c0-5.12,3.413-8.533,8.533-8.533h34.133
		c5.12,0,8.533,3.413,8.533,8.533V76.8C280.916,81.067,277.502,85.333,272.382,85.333z M246.782,68.267h17.067v-51.2h-17.067V68.267
		z"/>
	<path d="M272.382,75.947c-2.56,0-4.267-0.853-5.973-2.56c-1.707-0.853-2.56-3.413-2.56-5.973V17.067c0-2.56,0.853-4.267,2.56-5.973
		c1.707-1.707,3.413-2.56,5.973-2.56l0,0h51.2c3.413,0,5.973,1.707,7.68,4.267c11.947,20.48,17.067,34.133,17.92,34.987
		c0.853,3.413,0,6.827-2.56,9.387C334.676,69.12,310.782,75.093,272.382,75.947L272.382,75.947z M280.916,25.6v33.28
		c28.16-1.707,42.667-5.973,49.493-10.24c-2.56-5.12-6.827-12.8-11.947-23.04H280.916z"/>
	<path d="M238.249,75.947L238.249,75.947c-38.4-0.853-62.293-6.827-74.24-18.773c-2.56-2.56-3.413-5.973-1.707-9.387
		c0-0.853,5.973-14.507,17.92-34.987c0.853-2.56,3.413-4.267,6.827-4.267h51.2c2.56,0,4.267,0.853,5.973,2.56s2.56,3.413,2.56,5.973
		v50.347c0,2.56-0.853,4.267-2.56,5.973C242.516,75.093,240.809,75.947,238.249,75.947z M180.222,48.64
		c6.827,4.267,21.333,8.533,49.493,10.24V25.6h-37.547C187.049,35.84,182.782,43.52,180.222,48.64z"/>
	<path d="M321.022,512c-21.333,0-40.107-6.827-53.76-19.627c-1.707-1.707-2.56-4.267-2.56-6.827c0-0.853,8.533-128,8.533-161.28
		c0-17.067-7.68-55.467-13.653-89.6c-0.853-5.12-1.707-11.093-3.413-16.213c-0.853,5.12-1.707,10.24-3.413,16.213
		c-6.827,34.133-14.507,72.533-14.507,89.6c0,33.28,8.533,160.427,8.533,161.28c0,2.56-0.853,5.12-2.56,6.827
		c-14.507,12.8-33.28,19.627-54.613,19.627c-22.187,0-44.373-6.827-58.88-18.773c-2.56-1.707-3.413-5.12-3.413-8.533
		c0-0.853,10.24-57.173,17.067-85.333c5.973-27.307,28.16-172.373,8.533-225.28c-23.04-63.147,0-108.373,8.533-126.293
		c1.707-2.56,4.267-4.267,6.827-5.12s5.12,0,7.68,2.56c5.12,4.267,18.773,12.8,62.293,13.653c4.267,0,8.533,4.267,8.533,8.533v0.853
		h17.067v-0.853c0-4.267,3.413-8.533,8.533-8.533c43.52-1.707,58.027-9.387,62.293-14.507c1.707-0.853,4.267-1.707,7.68-1.707
		c2.56,0.853,5.12,1.707,5.973,4.267c8.533,17.067,31.573,63.147,8.533,126.293c-19.627,53.76,2.56,198.827,8.533,225.28
		c6.827,28.16,17.067,85.333,17.067,85.333c0.853,3.413-0.853,5.973-3.413,8.533C364.542,505.173,342.356,512,321.022,512z
		 M280.916,482.987c12.8,10.24,28.16,12.8,39.253,12.8c16.213,0,32.427-5.12,44.373-12.8c-2.56-14.507-11.093-56.32-16.213-79.36
		c-4.267-18.773-29.867-174.933-8.533-235.52c17.067-48.64,5.12-83.627-3.413-104.107c-11.093,6.827-29.867,10.24-55.467,11.947
		V76.8c0,5.12-3.413,8.533-8.533,8.533h-34.133c-5.12,0-8.533-3.413-8.533-8.533v-0.853c-25.6-1.707-44.373-5.12-56.32-11.947
		c-9.387,19.627-21.333,55.467-4.267,104.107c22.187,60.587-3.413,215.893-7.68,234.667c-5.12,23.04-12.8,64.853-16.213,79.36
		c11.947,8.533,29.013,12.8,44.373,12.8c11.093,0,26.453-2.56,39.253-12.8c-1.707-23.04-8.533-127.147-8.533-158.72
		c0-18.773,7.68-56.32,14.507-93.013c5.973-29.013,11.093-58.027,11.093-69.12c0-5.12,3.413-8.533,8.533-8.533
		s8.533,3.413,8.533,8.533c0,11.093,5.973,40.96,11.093,69.12c7.68,37.547,15.36,75.093,15.36,93.867
		C289.449,354.987,282.622,459.947,280.916,482.987z"/>
	<path d="M152.062,136.533c-1.707,0-4.267-0.853-5.12-1.707c-1.707-2.56-2.56-4.267-3.413-6.827
		c-2.56-39.253,11.947-67.413,18.773-80.213c0.853-2.56,3.413-4.267,5.973-5.12s5.12,0,7.68,2.56
		c4.267,4.267,13.653,9.387,37.547,11.947c4.267,0.853,7.68,5.12,7.68,9.387C218.622,103.253,189.609,132.267,152.062,136.533
		C152.916,136.533,152.916,136.533,152.062,136.533z M173.396,64c-5.973,11.947-12.8,29.867-12.8,53.76
		c21.333-5.973,37.547-23.04,41.813-44.373C190.462,70.827,180.222,68.267,173.396,64z"/>
	<path d="M358.569,136.533C357.716,136.533,357.716,136.533,358.569,136.533c-37.547-3.413-65.707-33.28-68.267-69.973
		c0-4.267,2.56-8.533,7.68-9.387c23.893-2.56,33.28-8.533,37.547-11.947c0.853-1.707,3.413-2.56,6.827-2.56
		c2.56,0.853,5.12,1.707,5.973,4.267c6.827,13.653,21.333,40.96,18.773,81.067c0,2.56-0.853,4.267-2.56,5.973
		C361.982,135.68,360.276,136.533,358.569,136.533z M308.222,73.387c4.267,21.333,20.48,38.4,41.813,44.373
		c0-23.04-6.827-41.813-12.8-53.76C330.409,68.267,320.169,70.827,308.222,73.387z"/>
</g>
<g>
</g>
<g>
</g>
<g>
</g>
<g>
</g>
<g>
</g>
<g>
</g>
<g>
</g>
<g>
</g>
<g>
</g>
<g>
</g>
<g>
</g>
<g>
</g>
<g>
</g>
<g>
</g>
<g>
</g>
</svg>
