<?xml version="1.0" encoding="iso-8859-1"?>
<!-- Generator: Adobe Illustrator 19.0.0, SVG Export Plug-In . SVG Version: 6.00 Build 0)  -->
<svg width="40px" height="40px" version="1.1" id="Layer_1" xmlns="http://www.w3.org/2000/svg" xmlns:xlink="http://www.w3.org/1999/xlink" x="0px" y="0px"
	 viewBox="0 0 511.31 511.31" style="enable-background:new 0 0 511.31 511.31;" xml:space="preserve">
<g transform="translate(1)">
	<g>
		<path style="fill:#FFE100;" d="M160.788,8.697c34.133,8.533,68.267,8.533,93.867,8.533v93.867v384c0,0-34.133,17.067-59.733,0
			c0,0-25.6-93.867-8.533-162.133c0,0-51.2-102.4-51.2-162.133S160.788,8.697,160.788,8.697"/>
		<path style="fill:#FFE100;" d="M348.522,8.697c-34.133,8.533-68.267,8.533-93.867,8.533v93.867v384c0,0,34.133,17.067,59.733,0
			c0,0,25.6-93.867,8.533-162.133c0,0,51.2-102.4,51.2-162.133S348.522,8.697,348.522,8.697"/>
	</g>
	<path style="fill:#FFA800;" d="M374.122,171.684c0-59.733-25.6-162.133-25.6-162.133c-5.12,1.707-11.093,2.56-16.213,3.413
		c4.267,17.92,24.747,105.813,24.747,158.72c0,59.733-51.2,162.133-51.2,162.133c17.067,68.267-8.533,162.133-8.533,162.133
		c-5.973,4.267-11.947,5.973-18.773,6.827c11.093,1.707,23.893,0.853,35.84-6.827c0,0,25.6-93.867,8.533-162.133
		C322.922,333.817,374.122,231.417,374.122,171.684"/>
	<path style="fill:#FFFFFF;" d="M135.188,170.83c0-59.733,25.6-162.133,25.6-162.133c5.12,1.707,11.093,2.56,16.213,3.413
		c-4.267,17.92-24.747,104.96-24.747,158.72c0,59.733,51.2,162.133,51.2,162.133c-17.067,68.267,8.533,162.133,8.533,162.133
		c5.973,4.267,11.947,5.973,18.773,6.827c-11.093,1.707-24.747,0.853-35.84-6.827c0,0-25.6-93.867-8.533-162.133
		C186.388,332.964,135.188,230.564,135.188,170.83"/>
	<g>
		<path style="fill:#FDCC00;" d="M220.522,85.497c0,18.773,15.36,34.133,34.133,34.133v-8.533V17.23c-10.24,0-22.187,0-34.133-0.853
			V85.497z"/>
		<path style="fill:#FDCC00;" d="M195.775,14.67c-11.093-0.853-23.04-3.413-34.987-5.973c0,0-11.947,48.64-19.627,98.133
			c19.627-16.213,53.76-66.56,53.76-89.6L195.775,14.67z"/>
		<path style="fill:#FDCC00;" d="M313.535,14.67c11.093-0.853,23.04-3.413,34.987-5.973c0,0,11.947,48.64,19.627,98.133
			c-19.627-16.213-53.76-66.56-53.76-89.6L313.535,14.67z"/>
	</g>
	<path d="M221.375,511.31c-11.947,0-23.04-3.413-31.573-9.387c-1.707-0.853-2.56-2.56-3.413-5.12
		c-0.853-4.267-25.6-93.867-9.387-162.987c-7.68-17.067-50.347-106.667-50.347-162.987c0-59.733,24.747-159.573,25.6-163.84
		c1.707-5.12,5.973-7.68,10.24-6.827c33.28,8.533,67.413,8.533,92.16,8.533c5.12,0,8.533,3.413,8.533,8.533v477.867
		c0,3.413-1.707,5.973-5.12,7.68C258.068,502.777,241.002,511.31,221.375,511.31z M202.602,489.977
		c5.973,3.413,11.947,4.267,19.627,4.267c10.24,0,18.773-2.56,24.747-5.12V25.764c-22.187,0-50.347-0.853-79.36-6.827
		c-6.827,25.6-23.893,103.253-23.893,151.893c0,57.173,49.493,157.013,50.347,158.72c0.853,1.707,0.853,3.413,0.853,5.12
		C180.415,393.55,198.335,472.91,202.602,489.977z"/>
	<path d="M141.162,115.364c-1.707,0-2.56,0-4.267-0.853c-3.413-1.707-5.12-5.12-4.267-8.533
		c7.68-49.493,19.627-98.987,19.627-98.987c1.707-5.12,5.973-7.68,10.24-6.827c10.24,2.56,21.333,4.267,34.133,5.973
		c2.56,0,5.12,1.707,5.973,4.267s2.56,5.12,0.853,7.68v0.853c-1.707,28.16-38.4,79.36-57.173,94.72
		C144.575,114.51,142.868,115.364,141.162,115.364z M166.762,18.937c-2.56,11.947-7.68,34.987-12.8,60.587
		c14.507-18.773,28.16-43.52,31.573-58.027C179.562,21.497,172.735,19.79,166.762,18.937z"/>
	<path d="M287.935,511.31L287.935,511.31c-19.627,0-35.84-8.533-36.693-8.533c-3.413-1.707-5.12-4.267-5.12-7.68V17.23
		c0-5.12,3.413-8.533,8.533-8.533c24.747,0,58.88,0,92.16-8.533c4.267-0.853,9.387,1.707,10.24,5.973s25.6,104.96,25.6,164.693
		c0,56.32-42.667,145.92-50.347,162.987c16.213,69.12-8.533,159.573-9.387,162.987c-0.853,1.707-1.707,3.413-3.413,5.12
		C310.122,507.897,299.882,511.31,287.935,511.31z M263.188,489.124c5.12,1.707,14.507,5.12,24.747,5.12l0,0
		c7.68,0,13.653-1.707,19.627-4.267c4.267-17.067,22.187-96.427,7.68-154.453c-0.853-1.707,0-4.267,0.853-5.973
		c0-1.707,49.493-101.547,49.493-158.72c0-48.64-17.067-126.293-23.04-151.893c-29.013,5.973-57.173,6.827-79.36,6.827V489.124z"/>
	<path d="M368.148,115.364c-1.707,0-4.267-0.853-5.12-1.707c-18.773-15.36-55.467-66.56-57.173-94.72v-0.853
		c-0.853-2.56-0.853-5.12,0.853-7.68c1.707-2.56,3.413-3.413,5.973-4.267c12.8-1.707,23.893-3.413,34.133-5.973
		c4.267-0.853,9.387,1.707,10.24,5.973c0,0.853,11.947,48.64,19.627,97.28c0,0.853,0.853,1.707,0.853,2.56
		C376.682,111.95,373.268,115.364,368.148,115.364L368.148,115.364z M323.775,22.35c2.56,14.507,17.067,39.253,31.573,58.027
		c-5.12-26.453-10.24-49.493-12.8-61.44C336.575,19.79,329.748,21.497,323.775,22.35z"/>
	<path d="M254.655,128.164c-23.893,0-42.667-18.773-42.667-42.667v-69.12c0-2.56,0.853-4.267,2.56-5.973s4.267-2.56,5.973-2.56
		c11.947,0.853,23.04,0.853,34.133,0.853c5.12,0,8.533,3.413,8.533,8.533v102.4C263.188,123.897,259.775,128.164,254.655,128.164z
		 M229.055,25.764v59.733c0,11.093,6.827,20.48,17.067,23.893V25.764C240.148,25.764,235.028,25.764,229.055,25.764z"/>
</g>
<g>
</g>
<g>
</g>
<g>
</g>
<g>
</g>
<g>
</g>
<g>
</g>
<g>
</g>
<g>
</g>
<g>
</g>
<g>
</g>
<g>
</g>
<g>
</g>
<g>
</g>
<g>
</g>
<g>
</g>
</svg>
