<svg xmlns="http://www.w3.org/2000/svg" x="0px" y="0px"
width="50" height="50"
viewBox="0 0 172 172"
style=" fill:#000000;"><g fill="none" fill-rule="nonzero" stroke="none" stroke-width="1" stroke-linecap="butt" stroke-linejoin="miter" stroke-miterlimit="10" stroke-dasharray="" stroke-dashoffset="0" font-family="none" font-weight="none" font-size="none" text-anchor="none" style="mix-blend-mode: normal"><path d="M0,172v-172h172v172z" fill="none"></path><g fill="#ffffff"><path d="M96.32,10.32v3.44h-6.88v24.08h20.64v-24.08h-6.88v-3.44zM116.96,27.52v13.76h-65.36v-6.88h-6.88v44.72h-6.88v-37.84h-3.44c-9.64812,0 -17.2,7.55188 -17.2,17.2c0,8.08938 3.30563,33.74156 3.44,34.83l0.43,3.01h13.33v3.44h-3.44v6.88h13.76v-6.88h-3.44v-3.44h13.0075l2.795,-11.18c0.37625,-1.53187 1.74688,-2.58 3.3325,-2.58h18.1675c3.35938,0 6.22156,2.28438 6.7725,5.4825c0.44344,2.51281 0.645,5.32125 0.645,8.2775c0,2.95625 -0.20156,5.76469 -0.645,8.2775c-0.55094,3.19813 -3.41312,5.4825 -6.7725,5.4825h-51.0625c-9.48687,0 -17.2,7.71313 -17.2,17.2v17.2c0,5.68406 4.63594,10.32 10.32,10.32h6.88v3.44h17.2v-3.44h68.8v3.44h17.2v-3.44h6.88c5.68406,0 10.32,-4.63594 10.32,-10.32v-86c0,-9.48687 -7.71312,-17.2 -17.2,-17.2h-6.88v-13.76zM153.8325,51.6c0.65844,2.17688 0.9675,4.48813 0.9675,6.88v24.08h6.88v-30.96zM116.96,58.48c5.68406,0 10.32,4.63594 10.32,10.32c0,5.68406 -4.63594,10.32 -10.32,10.32c-5.68406,0 -10.32,-4.63594 -10.32,-10.32c0,-5.68406 4.63594,-10.32 10.32,-10.32zM116.96,65.36c-1.89469,0 -3.44,1.54531 -3.44,3.44c0,1.89469 1.54531,3.44 3.44,3.44c1.89469,0 3.44,-1.54531 3.44,-3.44c0,-1.89469 -1.54531,-3.44 -3.44,-3.44zM116.96,92.88c9.48688,0 17.2,7.71313 17.2,17.2c0,9.48688 -7.71312,17.2 -17.2,17.2c-9.48687,0 -17.2,-7.71312 -17.2,-17.2c0,-9.48687 7.71313,-17.2 17.2,-17.2zM116.96,99.76c-5.6975,0 -10.32,4.6225 -10.32,10.32c0,5.6975 4.6225,10.32 10.32,10.32c5.6975,0 10.32,-4.6225 10.32,-10.32c0,-5.6975 -4.6225,-10.32 -10.32,-10.32z"></path></g></g></svg>